<svg width="1000" height="1000" viewBox="0 0 1000 1000" fill="none" xmlns="http://www.w3.org/2000/svg">
<path d="M1000 198.106V900C1000 955.228 955.228 1000 900 1000H100C44.7715 1000 8.05431e-07 955.228 0 900V100C1.28869e-05 44.7715 44.7715 8.05333e-07 100 0H801.894L1000 198.106Z" fill="#880088"/>
<path d="M656.243 920.38C611.898 936.91 565.217 946.228 517.909 947.976V840.458C552.27 838.442 586.133 831.141 618.254 818.776L656.243 920.38ZM381.72 819.662C413.886 831.713 447.754 838.746 482.07 840.448V947.966C434.768 946.04 388.043 936.542 343.736 919.832L381.72 819.662ZM272.596 752.646C295.578 773.297 321.159 790.769 348.755 804.611L310.766 905.855C268.878 886.234 230.26 860.296 196.258 828.981L272.596 752.646ZM804.631 828.979C770.365 860.383 731.434 886.322 689.233 905.854L651.243 804.609C678.839 790.767 704.415 773.296 727.396 752.644L804.631 828.979ZM195.366 651.229C209.164 679.138 226.636 705.027 247.333 728.277L170.995 804.614C139.591 770.349 113.652 731.418 94.1201 689.218L195.366 651.229ZM905.873 690.107C886.251 731.995 860.312 770.612 828.997 804.613L752.66 727.38C773.312 704.398 790.784 678.818 804.627 651.223L905.873 690.107ZM499.466 194.971C667.629 194.971 803.953 331.292 803.953 499.453C803.953 667.614 667.629 803.935 499.466 803.935C331.303 803.934 194.98 667.614 194.979 499.453C194.98 331.293 331.303 194.971 499.466 194.971ZM577.35 349.019L603.572 375.241L559.636 419.177C524.203 392.471 475.114 392.324 439.526 418.732L395.966 375.172L427.434 343.704L311.791 312.502L342.994 428.143L374.986 396.15L418.548 439.71C392.138 475.297 392.285 524.385 418.991 559.818L337.08 641.729L336.313 593.111C336.184 584.92 329.439 578.384 321.248 578.514C313.057 578.644 306.522 585.389 306.65 593.58L307.959 676.705C308.083 684.589 314.347 690.974 322.183 691.292L322.557 691.303L405.684 692.611C413.875 692.74 420.62 686.204 420.75 678.014C420.879 669.823 414.344 663.077 406.152 662.948L358.565 662.199L440.125 580.64C475.46 606.453 523.844 606.303 559.03 580.191L602.969 624.128L592.216 634.881L607.687 692.832L665.638 708.301L708.119 665.819L692.65 607.868L634.698 592.399L623.947 603.15L580.009 559.213C606.12 524.027 606.27 475.645 580.457 440.311L624.55 396.219L650.771 422.439L724.198 349.015L650.775 275.594L577.35 349.019ZM947.989 517.902C946.064 565.204 936.565 611.929 919.855 656.235L818.788 618.246C831.152 586.125 838.455 552.263 840.471 517.902H947.989ZM160.421 517.896C161.989 552.168 168.798 586.03 180.67 618.24L79.6025 656.229C63.0722 611.884 53.754 565.204 52.0068 517.896H160.421ZM458.329 472.934C458.329 474.894 459.107 476.799 460.502 478.183C461.883 479.581 463.767 480.359 465.738 480.359C467.695 480.359 469.58 479.581 470.976 478.183C472.357 476.799 473.134 474.894 473.134 472.934V449.865H492.326V472.934C492.326 477.028 495.65 480.345 499.735 480.345C503.821 480.345 507.145 477.028 507.145 472.934V449.865H526.336V472.934C526.336 474.894 527.113 476.799 528.494 478.183C529.89 479.581 531.775 480.359 533.731 480.359C535.702 480.359 537.588 479.581 538.969 478.183C540.364 476.799 541.141 474.894 541.141 472.934V449.865H558.362V512.105H538.738L538.724 534.9H517.69V566.014H481.78V534.9H460.746V512.105H441.123L441.107 449.865H458.329V472.934ZM920.4 343.736C936.931 388.081 946.249 434.762 947.996 482.069H840.478C838.461 447.709 831.159 413.847 818.795 381.727L920.4 343.736ZM181.201 381.72C168.837 413.841 161.535 447.703 159.519 482.063H52C53.9256 434.762 63.424 388.037 80.1338 343.73L181.201 381.72ZM247.331 272.586C226.68 295.568 209.207 321.15 195.364 348.745L94.1182 310.755C113.74 268.868 139.678 230.251 170.993 196.25L247.331 272.586ZM828.997 196.242C860.311 230.245 886.25 268.862 905.872 310.748L804.626 348.737C790.783 321.142 773.312 295.561 752.659 272.579L828.997 196.242ZM348.747 195.357C321.151 209.2 295.569 226.671 272.587 247.323L196.249 170.987C230.252 139.674 268.87 113.734 310.757 94.1123L348.747 195.357ZM690.123 94.1104C732.011 113.732 770.629 139.671 804.631 170.985L727.396 247.321C704.414 226.67 678.833 209.198 651.237 195.355L690.123 94.1104ZM482.081 160.413C447.81 161.981 413.947 168.789 381.736 180.661L343.747 79.5957C388.093 63.0656 434.773 53.7471 482.081 52V160.413ZM517.921 52C565.223 53.9256 611.949 63.4242 656.256 80.1338L618.271 180.304C586.105 168.253 552.237 161.219 517.921 159.517V52ZM420.996 85.2373C405.317 85.2373 392.606 97.9478 392.605 113.627C392.605 129.306 405.317 142.018 420.996 142.018C436.676 142.018 449.387 129.306 449.387 113.627C449.387 97.9478 436.676 85.2373 420.996 85.2373Z" fill="white"/>
</svg>
