<svg width="1000" height="1000" viewBox="0 0 1000 1000" fill="none" xmlns="http://www.w3.org/2000/svg">
<rect width="1000" height="1000" rx="100" fill="#880088"/>
<path d="M656.247 920.321C611.901 936.851 565.221 946.17 517.913 947.917V840.399C552.274 838.383 586.137 831.082 618.258 818.718L656.247 920.321ZM381.724 819.604C413.89 831.654 447.758 838.687 482.074 840.39V947.907C434.772 945.982 388.047 936.483 343.74 919.773L381.724 819.604ZM272.6 752.587C295.581 773.238 321.163 790.71 348.759 804.553L310.77 905.797C268.882 886.175 230.264 860.237 196.262 828.923L272.6 752.587ZM804.635 828.921C770.369 860.325 731.438 886.263 689.237 905.795L651.247 804.551C678.843 790.708 704.418 773.237 727.4 752.585L804.635 828.921ZM195.37 651.17C209.168 679.08 226.64 704.969 247.337 728.219L170.999 804.556C139.595 770.29 113.656 731.36 94.124 689.159L195.37 651.17ZM905.877 690.049C886.255 731.936 860.316 770.553 829.001 804.555L752.664 727.321C773.315 704.34 790.788 678.759 804.631 651.164L905.877 690.049ZM499.47 194.912C667.633 194.912 803.957 331.234 803.957 499.395C803.957 667.555 667.633 803.876 499.47 803.876C331.307 803.876 194.984 667.555 194.983 499.395C194.984 331.234 331.307 194.912 499.47 194.912ZM577.354 348.96L603.576 375.183L559.64 419.118C524.206 392.412 475.118 392.265 439.53 418.674L395.97 375.113L427.438 343.646L311.795 312.443L342.998 428.084L374.99 396.092L418.552 439.651C392.142 475.238 392.289 524.327 418.995 559.76L337.084 641.671L336.317 593.053C336.188 584.862 329.443 578.326 321.252 578.455C313.061 578.585 306.526 585.331 306.654 593.521L307.963 676.646C308.087 684.53 314.351 690.916 322.187 691.233L322.561 691.244L405.688 692.553C413.879 692.681 420.624 686.146 420.754 677.955C420.883 669.764 414.348 663.019 406.156 662.89L358.569 662.141L440.129 580.581C475.464 606.394 523.848 606.244 559.034 580.133L602.973 624.069L592.22 634.822L607.69 692.773L665.642 708.242L708.123 665.761L692.654 607.81L634.702 592.341L623.951 603.092L580.013 559.154C606.124 523.968 606.274 475.586 580.461 440.252L624.554 396.16L650.775 422.381L724.202 348.956L650.779 275.535L577.354 348.96ZM947.993 517.844C946.068 565.145 936.569 611.871 919.859 656.177L818.792 618.188C831.156 586.067 838.459 552.204 840.475 517.844H947.993ZM160.425 517.838C161.993 552.109 168.802 585.971 180.674 618.182L79.6064 656.171C63.0761 611.826 53.7579 565.145 52.0107 517.838H160.425ZM458.333 472.875C458.333 474.836 459.11 476.74 460.506 478.124C461.887 479.522 463.771 480.301 465.742 480.301C467.699 480.301 469.584 479.522 470.979 478.124C472.361 476.74 473.138 474.836 473.138 472.875V449.807H492.33V472.875C492.33 476.97 495.653 480.286 499.739 480.286C503.825 480.286 507.148 476.969 507.148 472.875V449.807H526.34V472.875C526.34 474.836 527.117 476.74 528.498 478.124C529.894 479.523 531.779 480.301 533.735 480.301C535.706 480.301 537.591 479.522 538.973 478.124C540.368 476.74 541.145 474.836 541.145 472.875V449.807H558.366V512.047H538.742L538.728 534.842H517.694V565.955H481.784V534.842H460.75V512.047H441.127L441.111 449.807H458.333V472.875ZM920.404 343.678C936.935 388.023 946.253 434.703 948 482.011H840.481C838.465 447.65 831.163 413.789 818.799 381.668L920.404 343.678ZM181.205 381.661C168.841 413.782 161.538 447.644 159.522 482.005H52.0039C53.9295 434.703 63.4279 387.978 80.1377 343.672L181.205 381.661ZM247.335 272.527C226.683 295.509 209.211 321.091 195.368 348.687L94.1221 310.696C113.744 268.809 139.682 230.193 170.997 196.191L247.335 272.527ZM829.001 196.184C860.315 230.186 886.254 268.803 905.876 310.689L804.63 348.679C790.787 321.083 773.316 295.502 752.663 272.521L829.001 196.184ZM348.751 195.299C321.155 209.141 295.573 226.612 272.591 247.265L196.253 170.929C230.256 139.615 268.874 113.675 310.761 94.0537L348.751 195.299ZM690.127 94.0518C732.015 113.673 770.633 139.612 804.635 170.927L727.4 247.263C704.418 226.611 678.837 209.139 651.241 195.297L690.127 94.0518ZM482.085 160.354C447.813 161.922 413.951 168.73 381.74 180.603L343.751 79.5371C388.097 63.007 434.777 53.6885 482.085 51.9414V160.354ZM517.925 51.9414C565.227 53.867 611.953 63.3657 656.26 80.0752L618.275 180.245C586.109 168.194 552.241 161.16 517.925 159.458V51.9414ZM421 85.1787C405.321 85.1787 392.61 97.8892 392.609 113.568C392.609 129.248 405.32 141.959 421 141.959C436.68 141.959 449.391 129.248 449.391 113.568C449.39 97.8892 436.679 85.1787 421 85.1787Z" fill="white"/>
</svg>
