<svg width="1000" height="1000" viewBox="0 0 1000 1000" fill="none" xmlns="http://www.w3.org/2000/svg">
<rect width="1000" height="1000" rx="100" fill="#880088"/>
<path d="M197.889 827.464H132.748C126.431 827.464 120.509 824.055 116.759 817.919C113.008 812.011 112.021 804.512 113.995 797.468L138.273 713.841H215.26L197.889 827.464ZM341.166 827.464H249.347L266.686 713.841H351.609L341.166 827.464ZM473.22 827.464H385.696L395.629 713.841H476.594L473.22 827.464ZM612.942 827.464H525.236L522.044 713.841H603.177L612.942 827.464ZM760.652 827.464H658.435L647.029 713.841H741.568L760.652 827.464ZM894.437 793.377C896.013 796.786 897 800.649 897 804.739C897 817.238 888.133 827.464 877.297 827.464H811.882L794.739 713.841H871.385L894.437 793.377ZM764.022 202.536C797.597 202.536 824.883 230.658 824.884 265.261C824.884 299.863 797.597 327.985 764.022 327.985H337.998V411.618H784.316C840.258 411.618 885.752 458.506 885.752 516.16V641.609C885.752 653.161 876.667 662.517 865.459 662.518H135.119C123.91 662.517 114.832 653.161 114.832 641.609V516.16C114.832 458.506 160.326 411.618 216.267 411.618V307.077C216.268 249.423 261.762 202.536 317.704 202.536H764.022Z" fill="white"/>
</svg>
