<svg width="1000" height="1000" viewBox="0 0 1000 1000" fill="none" xmlns="http://www.w3.org/2000/svg">
<rect width="1000" height="1000" rx="100" fill="#880088"/>
<path d="M409.203 122H763.476C779.792 122 792.994 135.2 792.994 151.514V181.028C792.994 197.342 779.792 210.542 763.476 210.542H645.409C629.093 210.542 615.891 197.342 615.891 181.028C615.642 181.028 556.731 181.09 497.792 210.542L438.757 240.087H409.209V623.829H438.757C527.124 682.732 615.523 682.857 615.898 682.857C615.898 666.543 629.099 653.343 645.415 653.343H763.482C779.798 653.343 793 666.543 793 682.857V712.37C793 728.684 779.798 741.884 763.482 741.884H497.792C497.792 741.884 456.94 741.884 409.209 737.65V771.399H394.45V800.913H594.252C604.465 783.292 623.552 771.399 645.41 771.399C678.01 771.399 704.446 797.831 704.446 830.458C704.446 863.054 678.01 889.486 645.41 889.486C623.552 889.486 604.466 877.624 594.252 859.972H438.753V889.486C438.753 905.8 425.52 919 409.205 919H291.137C274.821 919 261.62 905.8 261.62 889.486V859.972H224.193C213.981 877.624 194.893 889.486 173.035 889.486C140.435 889.486 114 863.054 114 830.458C114 797.831 140.435 771.399 173.035 771.399C194.893 771.399 213.98 783.292 224.193 800.913H305.897V771.399H291.137V713.99C273.14 706.082 261.62 695.902 261.62 682.857V623.829H291.137V240.087H261.62V151.516C261.62 122.002 409.212 122.002 409.212 122.002L409.203 122Z" fill="white"/>
<path d="M876.991 521.958V580.372C876.991 586.378 874.608 592.131 870.317 596.357C866.122 600.616 860.37 602.999 854.364 602.999H560.591C556.873 602.999 553.249 602.047 549.976 600.331L752.67 397.633L876.991 521.958ZM854.369 264C860.375 264 866.128 266.384 870.322 270.61C874.612 274.869 876.996 280.622 876.996 286.596L877 458.02L752.678 333.728L538 548.442V286.596C538 280.621 540.384 274.869 544.674 270.61C548.837 266.383 554.622 264 560.596 264H854.369ZM628.38 297.904C603.432 297.904 583.188 318.15 583.188 343.098C583.189 368.045 603.433 388.29 628.38 388.29C653.359 388.29 673.603 368.045 673.604 343.098C673.604 318.15 653.359 297.904 628.38 297.904Z" fill="white"/>
</svg>
