<svg width="1000" height="1000" viewBox="0 0 1000 1000" fill="none" xmlns="http://www.w3.org/2000/svg">
<rect width="1000" height="1000" rx="100" fill="#880088"/>
<path d="M857.99 756.399V829.632C857.99 837.162 855.002 844.374 849.623 849.673C844.364 855.012 837.151 858 829.622 858H461.322C456.661 858 452.118 856.807 448.014 854.655L702.129 600.534L857.99 756.399ZM292.327 674.769L260.818 706.371L243.021 688.637V746.465C243.021 752.407 245.379 758.099 249.624 762.281C253.775 766.463 259.466 768.822 265.378 768.822H388.358V813.568H265.378C247.612 813.568 230.506 806.493 217.99 793.915C205.349 781.306 198.306 764.262 198.306 746.465V688.637L180.54 706.371L149 674.769L220.663 603.042L292.327 674.769ZM829.628 433C837.158 433 844.369 435.988 849.628 441.287C855.007 446.626 857.995 453.838 857.995 461.328L858 676.24L702.139 520.416L433 789.602V461.328C433 453.838 435.988 446.626 441.367 441.287C446.587 435.988 453.839 433 461.328 433H829.628ZM546.309 475.506C515.032 475.506 489.652 500.886 489.652 532.163C489.652 563.44 515.032 588.821 546.309 588.821C577.624 588.821 603.004 563.44 603.004 532.163C603.004 500.886 577.624 475.506 546.309 475.506ZM487.593 387H415C399.536 387 387 399.536 387 415V568H170.322C165.661 568 161.118 566.807 157.014 564.655L411.129 310.534L487.593 387ZM538.628 143C546.158 143 553.369 145.988 558.628 151.287C564.007 156.626 566.995 163.838 566.995 171.328L567 386.24L411.139 230.416L142 499.602V171.328C142 163.838 144.988 156.626 150.367 151.287C155.587 145.988 162.839 143 170.328 143H538.628ZM734.979 187.429C752.746 187.429 769.853 194.503 782.368 207.081C795.009 219.691 802.053 236.734 802.053 254.532V312.36L819.818 294.625L851.358 326.228L779.695 397.955L708.031 326.228L739.54 294.625L757.338 312.36L757.337 254.532C757.337 248.59 754.979 242.898 750.733 238.716C746.583 234.534 740.891 232.175 734.979 232.175H612V187.429H734.979ZM255.309 185.506C224.032 185.506 198.653 210.886 198.652 242.163C198.652 273.44 224.032 298.821 255.309 298.821C286.624 298.821 312.004 273.44 312.004 242.163C312.004 210.886 286.624 185.506 255.309 185.506Z" fill="white"/>
</svg>
