<svg width="1000" height="1001" viewBox="0 0 1000 1001" fill="none" xmlns="http://www.w3.org/2000/svg">
<path d="M1000 199.106V901C1000 956.228 955.228 1001 900 1001H100C44.7715 1001 8.05431e-07 956.228 0 901V101C1.28869e-05 45.7715 44.7715 1 100 1H801.894L1000 199.106Z" fill="#880088"/>
<path d="M153.712 679.707C210.687 790.039 316.872 866.576 439.563 885.679C562.28 904.787 686.708 864.204 774.561 776.425C774.7 776.286 774.909 776.251 775.083 776.077C775.222 775.938 775.257 775.729 775.431 775.59H775.396C848.347 702.639 889.31 603.689 889.31 500.493C889.31 397.333 848.345 298.379 775.396 225.433C775.257 225.293 775.222 225.085 775.048 224.945C774.909 224.806 774.7 224.737 774.526 224.597H774.561C701.645 151.612 602.66 110.612 499.5 110.683C499.117 110.683 498.734 110.753 498.351 110.753H498.177C427.002 111.066 357.293 130.835 296.589 167.972C235.855 205.074 186.434 258.079 153.717 321.25C153.334 322.016 152.951 322.678 152.638 323.478C95.384 434.541 95.384 566.454 152.638 677.508C152.951 678.274 153.329 678.976 153.712 679.707ZM196.139 361.281H299.156C287.392 397.339 280.292 434.789 278.064 472.656H166.796C169.998 434.093 179.92 396.399 196.139 361.281ZM674.704 325.293C679.924 330.514 687.024 333.437 694.403 333.437C701.781 333.437 708.882 330.514 714.102 325.293L754.405 284.989V284.955C799.269 337.858 826.486 403.502 832.194 472.653H777.934C762.55 472.653 750.09 485.112 750.09 500.496C750.09 515.88 762.55 528.34 777.934 528.34H832.194C826.486 597.497 799.269 663.14 754.405 716.038L714.102 675.7C703.173 665.154 685.806 665.328 675.051 676.048C664.332 686.802 664.157 704.17 674.703 715.099L715.007 755.402C662.103 800.301 596.495 827.482 527.344 833.191V567.7L591.176 631.532V631.567C602.105 642.113 619.473 641.939 630.227 631.219C640.947 620.464 641.121 603.097 630.575 592.168L547.88 509.472L761.443 414.563V414.598C775.47 408.333 781.805 391.87 775.574 377.809C769.309 363.748 752.846 357.413 738.82 363.679L527.35 457.653V167.802C596.507 173.509 662.114 200.692 715.012 245.59L674.709 285.894C669.488 291.115 666.565 298.215 666.565 305.593C666.565 312.971 669.483 320.072 674.704 325.293ZM471.654 639.718H360.038C346.916 603.8 338.25 566.384 334.213 528.343H471.659L471.654 639.718ZM471.654 695.405V806.255C436.257 774.861 406.848 737.306 384.885 695.405H471.654ZM471.654 196.757V305.593H384.885C408.205 265.149 437.44 228.466 471.654 196.757ZM471.654 361.28V472.655H333.406C336.156 434.474 344.578 396.955 358.465 361.28H471.654ZM278.137 528.343C281.548 566.176 289.101 603.521 300.69 639.718H196.14C179.922 604.6 170.002 566.906 166.8 528.343H278.137ZM228.645 695.405H322.236C343.327 741.905 372.146 784.541 407.437 821.437C335.427 800.624 272.464 756.248 228.645 695.405ZM409.946 178.902C373.992 216.282 344.095 259.022 321.298 305.593H228.652C272.994 244.059 336.919 199.403 409.946 178.902Z" fill="white"/>
</svg>
