<svg width="1000" height="1000" viewBox="0 0 1000 1000" fill="none" xmlns="http://www.w3.org/2000/svg">
<path d="M1000 198.106V900C1000 955.228 955.228 1000 900 1000H100C44.7715 1000 8.05431e-07 955.228 0 900V100C1.28869e-05 44.7715 44.7715 8.05333e-07 100 0H801.894L1000 198.106Z" fill="#880088"/>
<path d="M500 164.01C494.928 164.01 490 165.776 486.059 169.018L421.626 222.451C412.409 230.121 411.134 243.754 418.728 253.017C426.409 262.193 440.06 263.495 449.335 255.911L478.204 232.031V320.573L269.316 431.286V431.257C267.809 432.01 266.417 432.936 265.113 434.036C264.968 434.152 264.794 434.296 264.62 434.441C261.2 437.451 258.823 441.446 257.809 445.846C257.78 445.991 257.751 446.135 257.722 446.28C257.374 447.785 257.171 449.348 257.171 450.882V684.935L180.07 729.337L186.302 692.634H186.273C188.273 680.795 180.273 669.594 168.419 667.568C156.535 665.571 145.289 673.559 143.289 685.398L129.261 767.745V767.774C129.232 768.063 129.203 768.324 129.174 768.613C129.058 769.569 129 770.524 129 771.479C129 772.434 129.087 773.389 129.203 774.316C129.348 775.271 129.522 776.197 129.754 777.123C130.015 778.05 130.334 778.947 130.71 779.815V779.902C131.464 781.639 132.42 783.289 133.609 784.794C134.188 785.546 134.797 786.241 135.464 786.907C136.13 787.573 136.826 788.181 137.58 788.759C137.609 788.788 137.638 788.788 137.696 788.817C138.275 789.28 138.884 789.686 139.522 790.062C139.782 790.207 140.043 790.351 140.275 790.496C140.855 790.815 141.435 791.075 142.043 791.336C142.275 791.451 142.478 791.538 142.71 791.625C142.913 791.712 143.087 791.799 143.261 791.885L221.579 821.005C226.999 823.06 233.057 822.857 238.332 820.426C243.636 818.023 247.722 813.595 249.752 808.153C253.925 796.865 248.158 784.332 236.882 780.135L201.84 767.167L279.312 722.388L489.766 833.738C489.795 833.738 489.795 833.767 489.824 833.767C492.258 835.041 494.925 835.823 497.649 836.112C497.852 836.141 498.026 836.141 498.229 836.17C498.78 836.228 499.36 836.257 499.91 836.286C500.49 836.257 501.07 836.228 501.62 836.17C501.91 836.141 502.2 836.141 502.49 836.112C503.765 835.967 505.07 835.707 506.316 835.359H506.345C507.707 834.925 509.011 834.404 510.229 833.739L720.571 722.44L798.132 767.161L763.148 780.129C757.728 782.155 753.294 786.207 750.888 791.475C748.454 796.714 748.222 802.734 750.222 808.147C754.424 819.436 766.974 825.196 778.278 820.999L856.737 791.88C858.766 791.128 860.65 790.086 862.36 788.783C862.418 788.725 862.476 788.667 862.534 788.609C863.201 788.088 863.838 787.538 864.447 786.959C864.65 786.757 864.824 786.554 864.998 786.352C865.404 785.946 865.78 785.512 866.128 785.078C866.302 784.875 866.476 784.644 866.621 784.441C866.737 784.268 866.824 784.123 866.94 783.978C866.998 783.891 867.056 783.833 867.114 783.747C867.258 783.515 867.432 783.283 867.577 783.023C867.722 782.82 867.867 782.589 868.012 782.386C870.969 777.321 871.78 771.242 870.215 765.569L856.737 685.393C854.708 673.554 843.462 665.565 831.608 667.563C819.724 669.56 811.725 680.791 813.695 692.63L819.927 729.332L742.826 684.93V450.877C742.826 446.449 741.492 442.107 738.971 438.431C738.913 438.373 738.855 438.286 738.797 438.199C737.84 436.839 736.739 435.623 735.522 434.523C733.927 433.105 732.159 431.947 730.246 431.05L521.819 320.537V232.195L550.513 255.901C554.977 259.577 560.716 261.372 566.483 260.822C572.28 260.272 577.584 257.464 581.265 253.006C588.888 243.744 587.584 230.111 578.367 222.44L514.37 169.413C514.225 169.268 514.08 169.152 513.935 169.008C513.819 168.921 513.703 168.834 513.587 168.776C513.036 168.313 512.486 167.908 511.906 167.531C511.645 167.387 511.413 167.242 511.152 167.097C511.007 167.01 510.862 166.923 510.689 166.837C510.573 166.75 510.457 166.663 510.312 166.605C510.022 166.431 509.732 166.316 509.413 166.171C509.123 166.026 508.834 165.881 508.515 165.737C508.167 165.592 507.79 165.447 507.413 165.303C507.181 165.216 506.95 165.129 506.689 165.071H506.66C506.022 164.868 505.413 164.695 504.776 164.55C504.457 164.492 504.138 164.434 503.848 164.376C503.5 164.318 503.182 164.261 502.863 164.203C502.602 164.203 502.37 164.174 502.138 164.174C502.051 164.145 501.964 164.145 501.877 164.116C501.558 164.087 501.211 164.058 500.892 164.029C500.602 164.029 500.312 164 499.993 164L500 164.01ZM499.913 358.352L674.543 450.718L499.913 543.195L325.454 450.718L499.913 358.352ZM300.79 486.983L478.172 581.001V778.292L300.79 684.304V486.983ZM699.155 486.983L699.184 684.304L521.831 778.203V581.001L699.155 486.983Z" fill="white"/>
</svg>
