<svg width="1000" height="1000" viewBox="0 0 1000 1000" fill="none" xmlns="http://www.w3.org/2000/svg">
<rect width="1000" height="1000" rx="100" fill="#880088"/>
<path d="M408.145 432.853C412.906 432.853 416.827 434.266 420.002 437.054C423.157 439.862 424.764 443.46 424.764 447.774C424.764 451.844 423.425 455.33 420.748 458.306C418.07 461.282 414.513 462.772 410.058 462.772H292.533C285.859 462.772 280.81 464.486 277.348 467.915C273.867 471.343 272.128 476.638 272.128 483.834V590.393C272.128 599.738 270.215 608.215 266.428 615.846C262.643 623.495 257.573 629.486 251.242 633.875C247.312 636.578 242.968 638.443 238.193 639.47C242.968 640.498 247.312 642.364 251.242 645.067C257.573 649.418 262.641 655.429 266.428 663.096C270.215 670.726 272.128 679.204 272.128 688.548V795.58C272.128 802.776 273.867 808.05 277.348 811.498C280.828 814.965 285.897 816.642 292.533 816.642H410.056C414.473 816.642 418.031 818.13 420.747 821.087C423.462 824.064 424.763 827.569 424.763 831.62C424.763 835.67 423.194 839.137 420.001 842.114C416.826 845.09 412.885 846.559 408.144 846.559H281.574V846.446C271.152 846.446 262.373 844.657 255.239 841.096C248.125 837.535 242.732 832.109 239.117 824.951C235.502 817.791 233.648 809.031 233.648 798.745V692.675C233.648 679.6 231.028 670.086 225.845 664.151C220.624 658.235 211.367 655.108 198.095 654.806C193.964 654.806 190.655 653.261 188.149 650.116C185.606 647.006 184.363 643.408 184.363 639.395C184.363 635.043 185.606 631.446 188.149 628.638C190.675 625.831 194.021 624.286 198.095 623.985C211.367 623.664 220.624 620.556 225.845 614.64C231.066 608.724 233.648 599.361 233.648 586.587V480.519C233.648 464.938 237.778 453.086 245.983 445.004C254.187 436.922 266.065 432.853 281.574 432.853H408.145ZM718.425 432.748C733.935 432.748 745.773 436.817 754.017 444.899C762.259 452.982 766.352 464.832 766.353 480.413V586.482C766.353 599.255 768.973 608.636 774.155 614.534C779.377 620.449 788.633 623.576 801.905 623.878C806.037 624.179 809.344 625.725 811.85 628.532C814.393 631.339 815.637 634.937 815.637 639.29C815.637 643.359 814.393 646.921 811.85 650.01C809.344 653.118 805.979 654.7 801.905 654.7C788.633 655.002 779.395 658.129 774.155 664.044C768.935 669.96 766.353 679.457 766.353 692.569V798.638C766.353 808.943 764.535 817.648 760.882 824.844C757.23 832.041 751.875 837.392 744.76 840.991C737.627 844.551 728.848 846.34 718.425 846.34H591.857V846.454C587.096 846.454 583.175 844.965 580 842.007C576.825 839.031 575.236 835.527 575.236 831.514C575.236 827.501 576.576 823.958 579.254 820.982C581.931 818.006 585.489 816.536 589.944 816.536H707.467C714.142 816.536 719.19 814.859 722.651 811.393C726.132 807.964 727.873 802.67 727.873 795.473V688.443C727.873 679.098 729.786 670.62 733.572 662.991C737.359 655.342 742.427 649.351 748.757 644.961C752.687 642.259 757.031 640.392 761.806 639.365C757.031 638.338 752.687 636.471 748.757 633.769C742.427 629.417 737.359 623.407 733.572 615.74C729.786 608.109 727.873 599.631 727.873 590.287V483.728C727.873 476.568 726.132 471.275 722.651 467.808C719.171 464.379 714.104 462.666 707.467 462.666H589.944C585.527 462.665 581.969 461.176 579.254 458.2C576.576 455.26 575.236 451.737 575.236 447.667C575.236 443.317 576.806 439.756 580 436.949C583.155 434.141 587.096 432.748 591.857 432.748H718.425ZM390.643 597.75C413.688 597.75 432.374 616.157 432.374 638.858C432.374 661.56 413.688 679.967 390.643 679.967C367.598 679.967 348.912 661.56 348.912 638.858C348.912 616.157 367.598 597.75 390.643 597.75ZM624.388 597.75C647.433 597.75 666.118 616.157 666.118 638.858C666.118 661.56 647.433 679.967 624.388 679.967C601.342 679.967 582.656 661.56 582.656 638.858C582.656 616.157 601.342 597.75 624.388 597.75Z" fill="white"/>
<path d="M704.281 324.062C722.854 330.647 738.799 338.489 750.391 347.711C761.805 356.791 771.153 369.031 771.153 384.347C771.153 402.095 758.706 415.688 744.381 425.384C729.538 435.43 709.046 443.885 685.071 450.749C636.918 464.535 571.268 472.86 499.372 472.86C427.475 472.86 361.825 464.535 313.673 450.749C289.698 443.885 269.206 435.43 254.363 425.384C240.038 415.688 227.592 402.096 227.592 384.348V384.347C227.592 369.032 236.939 356.792 248.351 347.713C259.943 338.491 275.886 330.649 294.458 324.063L314.471 316.967V334.21C321.496 342.116 357.112 371.218 499.37 371.218C641.63 371.218 677.245 342.115 684.268 334.209V316.965L704.281 324.062ZM500.697 85.0039C613.298 85.6489 706.601 168.418 713.66 274.658L713.962 279.198L711.69 283.141C703.222 297.838 665.364 336.994 499.37 336.994C333.405 336.994 295.529 297.853 287.052 283.149L284.778 279.206L285.08 274.664C292.163 168.004 386.177 85.0001 499.372 85L500.697 85.0039Z" fill="white" stroke="#880088" stroke-width="30"/>
</svg>
