<svg width="1000" height="1000" viewBox="0 0 1000 1000" fill="none" xmlns="http://www.w3.org/2000/svg">
<g clip-path="url(#clip0_1155_4417)">
<path d="M0 346.662C0 183.25 0 101.537 50.7625 50.7625C101.537 0 183.25 0 346.662 0H653.337C816.75 0 898.463 0 949.238 50.7625C1000 101.537 1000 183.25 1000 346.662V653.337C1000 816.75 1000 898.463 949.238 949.238C898.463 1000 816.75 1000 653.337 1000H346.662C183.25 1000 101.537 1000 50.7625 949.238C0 898.463 0 816.75 0 653.337V346.662Z" fill="#F4801F"/>
<path d="M623.35 651.125L626.8 639.175C630.887 624.975 629.375 611.862 622.475 602.2C616.037 593.3 605.537 588.075 592.675 587.475L349.375 584.387C348.609 584.38 347.857 584.186 347.183 583.823C346.51 583.46 345.934 582.939 345.506 582.305C345.078 581.67 344.811 580.941 344.727 580.18C344.643 579.42 344.745 578.65 345.025 577.937C345.437 576.747 346.19 575.704 347.19 574.937C348.19 574.171 349.393 573.714 350.65 573.625L596.325 570.4C625.312 569.075 657.012 545.437 668.062 516.575L682.037 479.975C682.65 478.394 682.784 476.669 682.425 475.012C674.797 440.975 656.255 410.363 629.622 387.837C602.989 365.311 569.724 352.105 534.893 350.231C500.062 348.357 465.572 357.917 436.676 377.455C407.78 396.994 386.06 425.44 374.825 458.462C362.896 449.597 348.516 444.641 333.658 444.274C318.8 443.906 304.193 448.146 291.84 456.411C279.488 464.675 269.996 476.56 264.666 490.434C259.337 504.308 258.432 519.491 262.075 533.9C247.598 534.273 233.367 537.718 220.322 544.007C207.278 550.295 195.719 559.284 186.41 570.377C177.102 581.47 170.257 594.414 166.329 608.352C162.4 622.29 161.479 636.904 163.625 651.225C163.781 652.355 164.34 653.391 165.199 654.142C166.058 654.892 167.159 655.308 168.3 655.312H617.65C618.925 655.324 620.169 654.922 621.197 654.168C622.224 653.413 622.98 652.345 623.35 651.125ZM704.425 482.75C702.173 482.751 699.922 482.814 697.675 482.937C697.318 482.946 696.965 483.022 696.637 483.162C696.048 483.356 695.515 483.692 695.088 484.141C694.66 484.591 694.351 485.139 694.187 485.737L684.525 518.8C680.4 533 681.9 546.112 688.837 555.775C692.336 560.348 696.841 564.054 702.002 566.607C707.162 569.161 712.842 570.493 718.6 570.5L770.5 573.725C771.62 573.754 772.691 574.188 773.516 574.947C774.341 575.705 774.864 576.736 774.987 577.85C775.079 578.619 774.985 579.4 774.712 580.125C774.3 581.317 773.547 582.362 772.548 583.13C771.548 583.899 770.345 584.358 769.087 584.45L715.187 587.662C685.9 589.025 654.362 612.637 643.312 641.462L639.425 651.65C639.266 652.075 639.209 652.532 639.258 652.983C639.307 653.435 639.461 653.869 639.707 654.25C639.954 654.631 640.286 654.95 640.678 655.18C641.069 655.41 641.509 655.545 641.962 655.575H827.625C828.757 655.601 829.865 655.242 830.766 654.556C831.668 653.87 832.31 652.898 832.587 651.8C838.117 632.022 838.998 611.232 835.162 591.057C831.325 570.882 822.875 551.867 810.472 535.498C798.068 519.13 782.048 505.852 763.662 496.701C745.277 487.551 725.024 482.776 704.487 482.75H704.425Z" fill="white"/>
</g>
<defs>
<clipPath id="clip0_1155_4417">
<rect width="1000" height="1000" fill="white"/>
</clipPath>
</defs>
</svg>
