<svg width="1000" height="1000" viewBox="0 0 1000 1000" fill="none" xmlns="http://www.w3.org/2000/svg">
<path d="M30.4877 847.413H878.047V134H30.4877C22.4019 134 14.6472 137.212 8.92965 142.93C3.21209 148.647 0 156.402 0 164.488V816.925C0 825.011 3.21209 832.766 8.92965 838.483C14.6472 844.201 22.4019 847.413 30.4877 847.413Z" fill="#AA00AA"/>
<path d="M1000 164.488V816.925C1000 825.011 996.788 832.766 991.07 838.483C985.353 844.201 977.598 847.413 969.512 847.413H878.049V134H969.512C977.598 134 985.353 137.212 991.07 142.93C996.788 148.647 1000 156.402 1000 164.488Z" fill="#880088"/>
<path d="M951.217 640.095H926.827V694.973H951.217V640.095Z" fill="#550055"/>
<path d="M963.414 743.754H914.634C911.266 743.754 908.536 746.484 908.536 749.852V798.632C908.536 802 911.266 804.73 914.634 804.73H963.414C966.782 804.73 969.512 802 969.512 798.632V749.852C969.512 746.484 966.782 743.754 963.414 743.754Z" fill="#550055"/>
<path d="M801.951 792.532H76.3424C72.6891 792.944 69.0214 791.893 66.1418 789.607C63.2621 787.322 61.4049 783.989 60.9766 780.337V225.46C61.406 221.856 63.2284 218.562 66.0541 216.283C68.8798 214.005 72.4847 212.921 76.0985 213.265H801.707C805.36 212.853 809.028 213.905 811.907 216.191C814.787 218.476 816.644 221.809 817.073 225.46V780.337C816.643 783.942 814.821 787.236 811.995 789.514C809.169 791.793 805.564 792.876 801.951 792.532Z" fill="#550055"/>
<path d="M634.148 237.658H536.588C529.853 237.658 524.393 243.118 524.393 249.853V755.949C524.393 762.684 529.853 768.144 536.588 768.144H634.148C640.884 768.144 646.344 762.684 646.344 755.949V249.853C646.344 243.118 640.884 237.658 634.148 237.658Z" fill="#AA00AA"/>
<g opacity="0.8">
<path d="M585.367 688.876C598.837 688.876 609.757 677.956 609.757 664.486C609.757 651.015 598.837 640.095 585.367 640.095C571.896 640.095 560.977 651.015 560.977 664.486C560.977 677.956 571.896 688.876 585.367 688.876Z" fill="#550055"/>
</g>
<path d="M585.366 676.682C592.101 676.682 597.561 671.222 597.561 664.487C597.561 657.751 592.101 652.292 585.366 652.292C578.631 652.292 573.171 657.751 573.171 664.487C573.171 671.222 578.631 676.682 585.366 676.682Z" fill="#AA00AA"/>
<path d="M780.487 237.658H682.927C676.191 237.658 670.731 243.118 670.731 249.853V755.949C670.731 762.684 676.191 768.144 682.927 768.144H780.487C787.222 768.144 792.682 762.684 792.682 755.949V249.853C792.682 243.118 787.222 237.658 780.487 237.658Z" fill="#AA00AA"/>
<g opacity="0.8">
<path d="M731.709 688.876C745.179 688.876 756.099 677.956 756.099 664.485C756.099 651.015 745.179 640.095 731.709 640.095C718.238 640.095 707.318 651.015 707.318 664.485C707.318 677.956 718.238 688.876 731.709 688.876Z" fill="#550055"/>
</g>
<path d="M731.707 676.682C738.442 676.682 743.902 671.222 743.902 664.487C743.902 657.751 738.442 652.292 731.707 652.292C724.972 652.292 719.512 657.751 719.512 664.487C719.512 671.222 724.972 676.682 731.707 676.682Z" fill="#AA00AA"/>
<path d="M487.806 237.658H390.245C383.51 237.658 378.05 243.118 378.05 249.853V755.949C378.05 762.684 383.51 768.144 390.245 768.144H487.806C494.541 768.144 500.001 762.684 500.001 755.949V249.853C500.001 243.118 494.541 237.658 487.806 237.658Z" fill="#AA00AA"/>
<g opacity="0.8">
<path d="M439.026 688.876C452.496 688.876 463.416 677.956 463.416 664.486C463.416 651.015 452.496 640.095 439.026 640.095C425.556 640.095 414.636 651.015 414.636 664.486C414.636 677.956 425.556 688.876 439.026 688.876Z" fill="#550055"/>
</g>
<path d="M439.023 676.682C445.758 676.682 451.218 671.222 451.218 664.487C451.218 657.751 445.758 652.292 439.023 652.292C432.288 652.292 426.828 657.751 426.828 664.487C426.828 671.222 432.288 676.682 439.023 676.682Z" fill="#AA00AA"/>
<path d="M341.463 237.658H243.902C237.167 237.658 231.707 243.118 231.707 249.853V755.949C231.707 762.684 237.167 768.144 243.902 768.144H341.463C348.198 768.144 353.658 762.684 353.658 755.949V249.853C353.658 243.118 348.198 237.658 341.463 237.658Z" fill="#AA00AA"/>
<g opacity="0.8">
<path d="M292.682 688.876C306.153 688.876 317.072 677.956 317.072 664.486C317.072 651.015 306.153 640.095 292.682 640.095C279.212 640.095 268.292 651.015 268.292 664.486C268.292 677.956 279.212 688.876 292.682 688.876Z" fill="#550055"/>
</g>
<path d="M292.681 676.682C299.417 676.682 304.877 671.222 304.877 664.487C304.877 657.751 299.417 652.292 292.681 652.292C285.946 652.292 280.486 657.751 280.486 664.487C280.486 671.222 285.946 676.682 292.681 676.682Z" fill="#AA00AA"/>
<path d="M195.122 237.658H97.5613C90.8261 237.658 85.3662 243.118 85.3662 249.853V755.949C85.3662 762.684 90.8261 768.144 97.5613 768.144H195.122C201.857 768.144 207.317 762.684 207.317 755.949V249.853C207.317 243.118 201.857 237.658 195.122 237.658Z" fill="#AA00AA"/>
<g opacity="0.8">
<path d="M146.339 688.876C159.81 688.876 170.73 677.956 170.73 664.485C170.73 651.015 159.81 640.095 146.339 640.095C132.869 640.095 121.949 651.015 121.949 664.485C121.949 677.956 132.869 688.876 146.339 688.876Z" fill="#550055"/>
</g>
<path d="M146.34 676.682C153.075 676.682 158.535 671.222 158.535 664.487C158.535 657.751 153.075 652.292 146.34 652.292C139.604 652.292 134.145 657.751 134.145 664.487C134.145 671.222 139.604 676.682 146.34 676.682Z" fill="#AA00AA"/>
<path d="M963.414 847.414H902.438V865.707H963.414V847.414Z" fill="#550055"/>
<path d="M97.5634 847.414H36.5879V865.707H97.5634V847.414Z" fill="#550055"/>
<path d="M969.513 262.049H957.318V274.244H969.513V262.049Z" fill="white"/>
<path d="M969.513 304.731H957.318V316.927H969.513V304.731Z" fill="white"/>
<path d="M969.513 347.414H957.318V359.609H969.513V347.414Z" fill="white"/>
<path d="M969.513 390.095H957.318V402.29H969.513V390.095Z" fill="white"/>
<path d="M969.513 432.78H957.318V444.975H969.513V432.78Z" fill="white"/>
</svg>
