<svg width="1000" height="1000" viewBox="0 0 1000 1000" fill="none" xmlns="http://www.w3.org/2000/svg">
<g clip-path="url(#clip0_1155_4399)">
<mask id="mask0_1155_4399" style="mask-type:luminance" maskUnits="userSpaceOnUse" x="0" y="0" width="1000" height="1000">
<path d="M1000 0H0V1000H1000V0Z" fill="white"/>
</mask>
<g mask="url(#mask0_1155_4399)">
<path d="M1000 0H0V1000H1000V0Z" fill="#474B50"/>
<path d="M267.836 266.868L273.016 758.988C231.574 764.172 200.493 743.449 200.493 702.008L195.312 292.769C195.312 163.263 314.458 132.182 386.981 183.984L754.777 396.375C806.578 432.637 816.941 499.977 791.039 546.602C785.859 510.34 770.32 489.617 739.238 468.898L324.818 235.786C293.737 215.065 267.836 220.246 267.836 266.868Z" fill="white"/>
<path d="M236.754 784.891C267.835 795.25 298.917 790.07 324.818 774.531L749.597 525.879C775.5 562.141 770.32 598.402 739.238 619.121L381.8 826.332C329.998 852.234 262.655 826.332 236.754 784.891Z" fill="white"/>
<path d="M361.08 639.832L614.911 494.785L366.261 354.919L361.08 639.832Z" fill="#FFC230"/>
</g>
</g>
<defs>
<clipPath id="clip0_1155_4399">
<rect width="1000" height="1000" fill="white"/>
</clipPath>
</defs>
</svg>
