<svg width="1000" height="1000" viewBox="0 0 1000 1000" fill="none" xmlns="http://www.w3.org/2000/svg">
<g clip-path="url(#clip0_1155_4409)">
<path d="M1000 0H0V1000H1000V0Z" fill="#171717"/>
<path fill-rule="evenodd" clip-rule="evenodd" d="M286.964 171.982H713.046V483.859H827.757L500.004 828.02L172.252 483.859H286.964V171.991V171.982Z" stroke="black" stroke-width="13.4933" stroke-miterlimit="1.414" stroke-linejoin="round"/>
<path fill-rule="evenodd" clip-rule="evenodd" d="M286.952 171.982H713.035V483.871H827.746L499.996 828.023L172.241 483.871H286.952V171.982Z" fill="#FFB300"/>
<path fill-rule="evenodd" clip-rule="evenodd" d="M500.051 828.027L287.491 171.982H712.61L500.051 828.023V828.027Z" fill="#FFCA28"/>
<path fill-rule="evenodd" clip-rule="evenodd" d="M378.457 747.363H201.4V710.102H306.459V677.039H201.4V570.016H378.457V607H273.399V640.059H378.457V747.363ZM483.515 710.102H516.574V677.039H483.515V710.102ZM588.574 747.363H411.515V640.059H516.574V607H411.515V570.016H588.57V747.363H588.574ZM693.628 710.102H726.687V607H693.628V710.102ZM621.628 747.363V499.977H693.628V570.02H798.687V747.363H621.628Z" stroke="black" stroke-width="13.5001" stroke-miterlimit="1.414" stroke-linecap="round" stroke-linejoin="round"/>
<path d="M378.457 747.363H201.4V710.102H306.459V677.039H201.4V570.016H378.457V607H273.399V640.059H378.457V747.363ZM483.515 710.102H516.574V677.039H483.515V710.102ZM588.574 747.363H411.515V640.059H516.574V607H411.515V570.016H588.57V747.363H588.574ZM693.628 710.102H726.687V607H693.628V710.102ZM621.628 747.363V499.977H693.628V570.02H798.687V747.363H621.628Z" fill="white"/>
</g>
<defs>
<clipPath id="clip0_1155_4409">
<rect width="1000" height="1000" fill="white"/>
</clipPath>
</defs>
</svg>
