<svg width="1000" height="1000" viewBox="0 0 1000 1000" fill="none" xmlns="http://www.w3.org/2000/svg">
<g clip-path="url(#clip0_1155_4383)">
<mask id="mask0_1155_4383" style="mask-type:luminance" maskUnits="userSpaceOnUse" x="0" y="0" width="1000" height="1000">
<path d="M1000 0H0V1000H1000V0Z" fill="white"/>
</mask>
<g mask="url(#mask0_1155_4383)">
<path d="M1000 0H0V1000H1000V0Z" fill="#232632"/>
<mask id="mask1_1155_4383" style="mask-type:luminance" maskUnits="userSpaceOnUse" x="128" y="128" width="744" height="744">
<path d="M871.094 128.906H128.906V871.094H871.094V128.906Z" fill="white"/>
</mask>
<g mask="url(#mask1_1155_4383)">
<path fill-rule="evenodd" clip-rule="evenodd" d="M871.094 500C871.094 602.082 835.02 689.566 762.867 762.453C760.469 765.301 757.785 767.926 754.816 770.32C742.945 781.957 730.387 792.508 717.141 801.973C654.578 848.055 582.312 871.094 500.344 871.094C418.258 871.094 346.107 848.055 283.886 801.973C267.446 790.34 252.033 777.164 237.648 762.453C181.592 706.793 147.171 642.117 134.386 568.438C131.876 554.063 130.218 539.465 129.42 524.637C129.077 516.426 128.906 508.211 128.906 500C128.906 491.332 129.077 483.063 129.42 475.191C129.42 474.395 129.646 473.594 130.105 472.797C135.472 381.777 171.318 303.134 237.648 236.864C310.6 164.893 398.164 128.906 500.344 128.906C602.863 128.906 690.371 164.893 762.867 236.864C835.02 310.203 871.094 397.918 871.094 500Z" fill="#EEEEEE"/>
<path fill-rule="evenodd" clip-rule="evenodd" d="M795.574 274.334L718.856 350.982C673.996 395.801 670.051 434.816 670.051 503.594C670.051 564.961 679.817 621.141 725.531 666.812C758.914 700.164 790.606 731.656 790.606 731.656C782.043 742.152 772.797 752.418 762.864 762.453C760.469 765.305 757.785 767.93 754.817 770.324C746.141 778.879 737.121 786.805 727.758 794.105L667.653 734.051C614.231 680.672 571.766 675.539 501.199 675.539C433.489 675.539 387.412 681.773 337.829 731.316C308.213 760.902 274.296 794.961 274.296 794.961C261.394 785.148 249.181 774.312 237.649 762.453C228.059 752.871 219.096 743.062 210.763 733.027C210.763 733.027 244.32 699.328 276.351 667.328C323.793 619.926 331.492 564.961 331.492 503.594C331.492 443.715 321.649 387.859 278.063 344.31C247.804 314.075 205.968 272.452 205.968 272.452C215.671 260.134 226.233 248.27 237.649 236.866C247.697 227.055 257.972 217.875 268.473 209.32L338.171 278.953C382.703 323.444 439.778 334.9 501.199 334.9C564.449 334.9 621.336 322.66 667.653 276.387C696.149 247.918 733.754 210.517 733.754 210.517C743.684 218.617 753.387 227.397 762.864 236.866C774.739 248.955 785.641 261.444 795.574 274.334Z" fill="#3A3F51"/>
<path fill-rule="evenodd" clip-rule="evenodd" d="M398.449 518.973C397.766 514.977 397.312 510.93 397.082 506.824C396.969 504.543 396.91 502.262 396.91 499.98C396.91 497.586 396.969 495.305 397.082 493.137C397.082 492.906 397.141 492.684 397.25 492.453C398.742 467.246 408.672 445.461 427.047 427.098C447.254 407.137 471.52 397.156 499.828 397.156C528.258 397.156 552.52 407.137 572.609 427.098C592.59 447.402 602.578 471.691 602.578 499.98C602.578 528.27 592.59 552.504 572.609 572.695C571.926 573.492 571.184 574.234 570.383 574.918C567.074 578.109 563.594 581.02 559.937 583.645C542.59 596.418 522.551 602.805 499.828 602.805C477.109 602.805 457.133 596.422 439.891 583.645C435.328 580.449 431.051 576.801 427.047 572.695C411.527 557.297 401.992 539.387 398.449 518.973Z" fill="#00CCFF"/>
<path d="M617.989 383.479L669.364 333.35L765.649 239.716M234.344 240.194L374.305 379.544M664.055 667.832L759.297 766.309M239.704 764.496L333.377 670.738" stroke="#00CCFF" stroke-width="2" stroke-miterlimit="1"/>
<path d="M669.363 333.343L611.313 392.199M330.876 336.266L389.785 394.949M333.112 671.008L390.48 611.469M602.582 606.691L664.324 668.094" stroke="#00CCFF" stroke-width="7" stroke-miterlimit="1"/>
</g>
</g>
</g>
<defs>
<clipPath id="clip0_1155_4383">
<rect width="1000" height="1000" fill="white"/>
</clipPath>
</defs>
</svg>
